<svg xmlns="http://www.w3.org/2000/svg" xmlns:xlink="http://www.w3.org/1999/xlink" viewBox="0 0 480.67 458.99"><defs><style>.cls-1{fill:none;}.cls-2{isolation:isolate;}.cls-3{fill:#af88bd;}.cls-4{mix-blend-mode:hard-light;}.cls-5{clip-path:url(#clip-path);}.cls-6{fill:#fff;}.cls-7{fill:#a078b4;}.cls-8{fill:#ad87bc;}.cls-9{fill:#723e91;mix-blend-mode:multiply;}.cls-10{fill:#060707;}.cls-11{opacity:0.9;fill:url(#linear-gradient);}</style><clipPath id="clip-path" transform="translate(-65.67 -167.01)"><polygon class="cls-1" points="86.68 502.08 86.78 472.15 187.12 520.03 187.02 549.97 86.68 502.08"/></clipPath><linearGradient id="linear-gradient" x1="231.44" y1="410.81" x2="329.77" y2="235.18" gradientUnits="userSpaceOnUse"><stop offset="0" stop-color="#fbe8d8"/><stop offset="0.21" stop-color="#fbe8d8"/><stop offset="0.24" stop-color="#fffbf0"/><stop offset="0.99" stop-color="#fff9ed"/></linearGradient></defs><g class="cls-2"><g id="Camada_1" data-name="Camada 1"><g id="Box01b"><polygon class="cls-3" points="0 114.06 240.34 229.56 240.45 458.99 0.01 343.62 0 114.06"/><g id="_Group_" data-name="&lt;Group&gt;" class="cls-4"><g class="cls-2"><g class="cls-5"><path class="cls-6" d="M88.7,501.87a1.4,1.4,0,0,1-.79-1.12l.09-26.1c0-.41.36-.58.79-.37l27.48,13.11a1.41,1.41,0,0,1,.78,1.12L117,514.62c0,.4-.35.57-.78.36L88.7,501.87Zm27.57-15.65L88.79,473.11c-1.11-.53-2-.1-2,.95l-.09,26.1a3.61,3.61,0,0,0,2,2.88l27.48,13.11c1.11.53,2,.11,2-.95l.09-26.1a3.6,3.6,0,0,0-2-2.88Z" transform="translate(-65.67 -167.01)"/><path class="cls-6" d="M123.11,518.29a1.4,1.4,0,0,1-.78-1.12l.09-26.1c0-.41.35-.57.78-.37l27.48,13.12a1.39,1.39,0,0,1,.79,1.12l-.09,26.1c0,.41-.36.57-.79.37l-27.48-13.12Zm27.58-15.64-27.48-13.12c-1.11-.53-2-.1-2,1l-.09,26.1a3.59,3.59,0,0,0,2,2.87l27.48,13.12c1.11.53,2,.1,2-1l.09-26.1a3.61,3.61,0,0,0-2-2.87Z" transform="translate(-65.67 -167.01)"/><path class="cls-6" d="M157.53,534.72a1.39,1.39,0,0,1-.78-1.12l.08-26.1c0-.41.36-.58.79-.37l27.48,13.11a1.39,1.39,0,0,1,.78,1.12l-.09,26.1c0,.41-.35.58-.78.37l-27.48-13.11Zm27.57-15.65L157.62,506c-1.11-.53-2-.1-2,1l-.09,26.1a3.61,3.61,0,0,0,2,2.88L185,549c1.11.53,2,.1,2-1l.09-26.1a3.59,3.59,0,0,0-2-2.88Z" transform="translate(-65.67 -167.01)"/><polygon class="cls-6" points="42.03 318.87 38.35 325.34 41.39 325.56 41.34 339.91 32.22 335.56 32.27 321.21 35.3 323.88 31.68 313.93 28 320.4 31.04 320.63 30.99 334.97 25.15 332.18 25.14 333.35 48.41 344.45 48.41 343.28 42.57 340.5 42.62 326.15 45.65 328.82 42.03 318.87 42.03 318.87"/><path class="cls-6" d="M145.73,504l-17.58-8.39v2.66c0,4.41,3.58,9.75,8.14,12.23l0,8.7c-2-.73-3.5-.25-3.51,1.2L141,524.3c0-1.45-1.52-3.38-3.5-4.54l0-8.71c4.57,1.88,8.19,0,8.21-4.42V504Z" transform="translate(-65.67 -167.01)"/><path class="cls-6" d="M172,516.49l-1.23-.58v1.35c-5.44-2.3-9.77-.08-9.79,5.17l9.76,4.65,0,9c0,.68-.58.95-1.29.61a2.29,2.29,0,0,1-1.29-1.84l-1.23-.58a4.51,4.51,0,0,0,2.51,3.59c1.39.66,2.52.13,2.53-1.19l0-9,9.75,4.66c0-5.25-4.28-11.59-9.72-14.49v-1.35Z" transform="translate(-65.67 -167.01)"/></g></g></g><polygon class="cls-7" points="240.34 229.56 480.67 114.19 480.67 343.62 240.45 458.99 240.34 229.56"/><polygon class="cls-8" points="0.01 114.19 239.79 0 480.67 114.19 240.34 229.56 0.01 114.19"/><path class="cls-9" d="M166.74,376.91,203,394l1.11-46.19c0-1.06,0-2.81,1.11-3.34l237-112.65L406,214.66,166.74,328.38Z" transform="translate(-65.67 -167.01)"/><path class="cls-10" d="M65.67,281.19l0,0a1.24,1.24,0,0,1,1,0l118.73,54.88v2.65Z" transform="translate(-65.67 -167.01)"/><path class="cls-10" d="M306,396.56,186.92,339.4v-2.76l118,58.24a1.86,1.86,0,0,1,1.12,1.63Z" transform="translate(-65.67 -167.01)"/><polygon class="cls-10" points="119.8 169.05 119.8 171.69 121.26 171.69 121.26 169.63 358.93 56.48 357.08 55.6 119.8 169.05"/><path id="Tape" class="cls-11" d="M442.23,231.62l-237,112.54a4.24,4.24,0,0,0-2.6,3.73v45.79l-36.19-17.25V330.38a3.52,3.52,0,0,1,2.18-3.11l237.54-112.8Z" transform="translate(-65.67 -167.01)"/></g></g></g></svg>